#!OML:ASF F:\VICON\USERDATA\INSTALL\rory3\rory3.ASF
:FULLY-SPECIFIED
:DEGREES
329
root 2.06047 17.3297 3.1522 5.93273 -74.8659 -8.35256
lowerback 8.79042 -0.367658 -1.12803
upperback -3.05782 -0.713121 -0.978963
thorax -8.17346 -0.321577 -0.287292
lowerneck -21.793 -10.0322 -16.3495
upperneck -15.3641 -9.95594 14.6101
head 0.270003 -4.45742 6.51246
rclavicle 2.38045e-014 -9.54166e-015
rhumerus 85.8892 -32.8934 -36.4815
rradius 29.7966
rwrist 15.5063
rhand -33.187 -1.21558
rfingers 7.12502
rthumb -6.39471 -31.099
lclavicle 2.38045e-014 -9.54166e-015
lhumerus 67.9874 23.4779 20.6567
lradius 48.2397
lwrist 1.2701
lhand -18.3607 19.0392
lfingers 7.12502
lthumb 7.92218 48.8707
rfemur -12.2948 -1.77196 16.9509
rtibia 61.6632
rfoot -2.60196 3.77869
rtoes -1.65637
lfemur -16.13 -1.71848 -10.6627
ltibia 34.8231
lfoot -20.9487 -4.59775
ltoes -25.9904
330
root 2.07382 17.3189 3.09603 1.77415 -74.6043 -3.88446
lowerback 8.81441 -0.255331 -2.34663
upperback -3.22167 -0.744327 -1.27861
thorax -8.35661 -0.28256 0.0861168
lowerneck -21.2377 -10.1712 -16.9379
upperneck -15.4876 -10.0718 14.7953
head 0.21742 -4.49611 6.67046
rclavicle -5.6753e-014 -2.38542e-015
rhumerus 85.9038 -32.9961 -36.2257
rradius 29.7413
rwrist 15.8755
rhand -33.3258 -1.10727
rfingers 7.12502
rthumb -6.5287 -30.9866
lclavicle -5.6753e-014 -2.38542e-015
lhumerus 67.7967 23.6951 20.8925
lradius 48.973
lwrist 1.25605
lhand -18.6509 18.6994
lfingers 7.12502
lthumb 7.64209 48.5413
rfemur -11.4928 -1.05998 15.9452
rtibia 60.4946
rfoot -3.8545 3.59652
rtoes -4.05072
lfemur -16.3994 -1.89026 -11.758
ltibia 34.6889
lfoot -20.7675 -4.54392
ltoes -26.1911
331
root 2.07585 17.3049 3.03259 0.851365 -74.1772 -2.88993
lowerback 8.84318 -0.268959 -2.73226
upperback -3.256 -0.826883 -1.43378
thorax -8.40786 -0.307325 0.151791
lowerneck -21.0427 -10.1901 -16.933
upperneck -15.53 -10.118 14.8385
head 0.190974 -4.52194 6.68456
rclavicle 1.55549e-014 5.56597e-015
rhumerus 85.9828 -33.2206 -36.293
rradius 29.6954
rwrist 16.0484
rhand -33.5012 -1.31934
rfingers 7.12502
rthumb -6.69807 -31.1934
lclavicle 1.55549e-014 5.56597e-015
lhumerus 67.694 24.0381 20.8018
lradius 49.4892
lwrist 1.30772
lhand -19.1841 18.2719
lfingers 7.12502
lthumb 7.12741 48.1319
rfemur -10.4196 -0.148193 16.0985
rtibia 58.9992
rfoot -5.8366 3.81233
rtoes -4.03556
lfemur -16.6176 -2.10111 -11.8044
ltibia 34.6916
lfoot -20.6494 -4.61132
ltoes -26.3606
332
root 2.07536 17.2821 2.96526 2.72181 -73.5855 -4.74726
lowerback 8.7945 -0.457537 -2.33709
upperback -3.23431 -1.03004 -1.46187
thorax -8.35747 -0.428474 -0.0680699
lowerneck -21.1325 -10.0628 -16.2619
upperneck -15.5742 -10.0867 14.6359
head 0.142058 -4.53864 6.51599
rclavicle 3.89121e-014 2.94201e-014
rhumerus 86.5296 -33.4585 -36.9929
rradius 29.4316
rwrist 16.4276
rhand -33.5285 -1.24993
rfingers 7.12502
rthumb -6.72446 -31.1232
lclavicle 3.89121e-014 2.94201e-014
lhumerus 67.5262 24.5579 20.1723
lradius 49.7624
lwrist 1.51896
lhand -19.6412 17.931
lfingers 7.12502
lthumb 6.68615 47.8054
rfemur -9.32893 0.596452 17.2927
rtibia 57.3616
rfoot -7.69737 4.62776
rtoes -1.74365
lfemur -17.0178 -2.24066 -10.9285
ltibia 34.7787
lfoot -20.5216 -4.84263
ltoes -26.7325
333
root 2.07798 17.2603 2.903 3.58956 -73.1151 -5.42105
lowerback 8.63514 -0.543705 -2.23273
upperback -3.27898 -1.13519 -1.53334
thorax -8.31468 -0.48818 -0.187262
lowerneck -21.1099 -9.99879 -15.8373
upperneck -15.649 -10.0985 14.4595
head 0.0865551 -4.56657 6.39446
rclavicle 4.88016e-014 4.77083e-015
rhumerus 87.0064 -33.6978 -37.4407
rradius 29.1527
rwrist 16.7189
rhand -33.5903 -1.2647
rfingers 7.12502
rthumb -6.78407 -31.136
lclavicle 4.88016e-014 4.77083e-015
lhumerus 67.232 25.0234 19.4749
lradius 50.2018
lwrist 1.85252
lhand -20.2098 17.641
lfingers 7.12502
lthumb 6.13729 47.5321
rfemur -8.44374 1.08148 18.1562
rtibia 55.8278
rfoot -9.05748 5.11192
rtoes -2.37185
lfemur -17.5495 -2.46735 -10.4147
ltibia 34.9182
lfoot -20.3738 -4.85167
ltoes -27.4293
334
root 2.08017 17.2584 2.8438 3.73217 -72.7263 -5.30085
lowerback 8.45531 -0.532332 -2.31647
upperback -3.35386 -1.13537 -1.62817
thorax -8.2917 -0.487645 -0.242226
lowerneck -20.9181 -10.083 -15.8973
upperneck -15.7665 -10.2139 14.4972
head 0.047768 -4.62418 6.41228
rclavicle -1.27222e-014 -1.90833e-014
rhumerus 86.933 -34.0394 -37.1173
rradius 29.071
rwrist 16.4469
rhand -33.7561 -1.52175
rfingers 7.12502
rthumb -6.94412 -31.3879
lclavicle -1.27222e-014 -1.90833e-014
lhumerus 67.0511 25.3955 19.2527
lradius 50.8869
lwrist 2.08333
lhand -20.6448 17.3998
lfingers 7.12502
lthumb 5.71733 47.3027
rfemur -7.67008 1.74037 18.7444
rtibia 54.5449
rfoot -10.7742 4.58692
rtoes -3.4443
lfemur -18.0483 -2.94977 -10.1632
ltibia 35.0468
lfoot -20.2732 -4.66982
ltoes -28.1809
335
root 2.08376 17.2642 2.78341 4.12169 -72.2787 -5.47859
lowerback 8.4038 -0.544774 -2.29736
upperback -3.47561 -1.15694 -1.67438
thorax -8.39457 -0.499946 -0.299032
lowerneck -20.6972 -10.1945 -16.1554
upperneck -15.8438 -10.3212 14.7038
head 0.0400475 -4.66721 6.51511
rclavicle 7.35503e-015 1.59028e-014
rhumerus 86.869 -34.3219 -36.8685
rradius 28.9413
rwrist 16.2365
rhand -33.7921 -1.23919
rfingers 7.12502
rthumb -6.97891 -31.1041
lclavicle 7.35503e-015 1.59028e-014
lhumerus 66.8895 25.6806 19.2397
lradius 51.6123
lwrist 2.41901
lhand -20.7765 17.6202
lfingers 7.12502
lthumb 5.59016 47.5265
rfemur -7.0613 2.45133 19.4809
rtibia 53.4934
rfoot -12.9939 3.8103
rtoes -2.55819
lfemur -18.503 -3.27355 -9.80896
ltibia 35.0843
lfoot -20.1081 -4.84287
ltoes -28.3238
336
root 2.08865 17.2573 2.72505 4.24134 -71.8843 -5.41958
lowerback 8.39879 -0.510307 -2.28851
upperback -3.54254 -1.12347 -1.79664
thorax -8.4676 -0.488005 -0.438703
lowerneck -20.6646 -10.3082 -16.2104
upperneck -15.8846 -10.4542 14.7722
head 0.0499425 -4.72829 6.53231
rclavicle -3.3197e-014 -1.74931e-014
rhumerus 87.95 -34.2807 -38.1941
rradius 28.3798
rwrist 17.3707
rhand -33.6945 -1.0829
rfingers 7.12502
rthumb -6.88469 -30.951
lclavicle -3.3197e-014 -1.74931e-014
lhumerus 66.9684 25.9828 19.3183
lradius 52.1212
lwrist 2.81454
lhand -20.9028 17.8748
lfingers 7.12502
lthumb 5.46821 47.7842
rfemur -6.68529 2.65917 20.1499
rtibia 52.6147
rfoot -14.6647 2.95428
rtoes -4.00771
lfemur -18.8735 -3.49481 -9.56478
ltibia 35.0391
lfoot -19.9248 -5.05499
ltoes -28.3329
337
root 2.09448 17.2555 2.66821 4.44959 -71.6027 -5.44014
lowerback 8.3644 -0.460443 -2.24506
upperback -3.56255 -1.06567 -1.95482
thorax -8.47397 -0.46812 -0.639896
lowerneck -20.6648 -10.3533 -16.0513
upperneck -16.0356 -10.5421 14.7411
head 0.00663471 -4.7796 6.49285
rclavicle -1.42131e-014 -2.3059e-014
rhumerus 87.6636 -34.838 -38.1323
rradius 28.6904
rwrist 17.0348
rhand -33.3821 -1.49119
rfingers 7.12502
rthumb -6.58306 -31.3689
lclavicle -1.42131e-014 -2.3059e-014
lhumerus 67.1657 26.3631 19.4695
lradius 52.3925
lwrist 2.89211
lhand -21.1014 17.7463
lfingers 7.12502
lthumb 5.27644 47.6606
rfemur -6.50094 2.74138 20.767
rtibia 51.8781
rfoot -15.6404 2.03746
rtoes -6.15597
lfemur -19.2124 -3.70252 -9.31295
ltibia 35.0293
lfoot -19.8576 -5.05128
ltoes -28.3873
